<mxfile host="app.diagrams.net" agent="Mozilla/5.0 (Windows NT 10.0; Win64; x64) AppleWebKit/537.36 (KHTML, like Gecko) Chrome/138.0.0.0 Safari/537.36" version="28.0.4">
  <diagram name="페이지-1" id="ekCtOkKp1aoRAcMPbs4y">
    <mxGraphModel dx="1303" dy="703" grid="1" gridSize="10" guides="1" tooltips="1" connect="1" arrows="1" fold="1" page="1" pageScale="1" pageWidth="827" pageHeight="1169" math="0" shadow="0">
      <root>
        <mxCell id="0" />
        <mxCell id="1" parent="0" />
        <mxCell id="MH2EAUF2dAE87gaKwB2e-1" value="Y" style="rounded=0;whiteSpace=wrap;html=1;" vertex="1" parent="1">
          <mxGeometry x="90" width="3250" height="1440" as="geometry" />
        </mxCell>
        <mxCell id="MH2EAUF2dAE87gaKwB2e-5" style="edgeStyle=orthogonalEdgeStyle;rounded=0;orthogonalLoop=1;jettySize=auto;html=1;" edge="1" parent="1" source="MH2EAUF2dAE87gaKwB2e-2" target="MH2EAUF2dAE87gaKwB2e-10">
          <mxGeometry relative="1" as="geometry">
            <mxPoint x="414" y="120" as="targetPoint" />
          </mxGeometry>
        </mxCell>
        <mxCell id="MH2EAUF2dAE87gaKwB2e-12" style="edgeStyle=orthogonalEdgeStyle;rounded=0;orthogonalLoop=1;jettySize=auto;html=1;" edge="1" parent="1" source="MH2EAUF2dAE87gaKwB2e-2" target="MH2EAUF2dAE87gaKwB2e-11">
          <mxGeometry relative="1" as="geometry" />
        </mxCell>
        <mxCell id="MH2EAUF2dAE87gaKwB2e-2" value="&lt;font style=&quot;font-size: 18px;&quot;&gt;시작&lt;/font&gt;" style="ellipse;whiteSpace=wrap;html=1;" vertex="1" parent="1">
          <mxGeometry x="670" width="120" height="80" as="geometry" />
        </mxCell>
        <mxCell id="MH2EAUF2dAE87gaKwB2e-14" value="" style="edgeStyle=orthogonalEdgeStyle;rounded=0;orthogonalLoop=1;jettySize=auto;html=1;" edge="1" parent="1" source="MH2EAUF2dAE87gaKwB2e-10" target="MH2EAUF2dAE87gaKwB2e-13">
          <mxGeometry relative="1" as="geometry" />
        </mxCell>
        <mxCell id="MH2EAUF2dAE87gaKwB2e-10" value="게시물 업로드 페이지" style="rounded=0;whiteSpace=wrap;html=1;" vertex="1" parent="1">
          <mxGeometry x="354" y="150" width="120" height="60" as="geometry" />
        </mxCell>
        <mxCell id="MH2EAUF2dAE87gaKwB2e-21" value="" style="edgeStyle=orthogonalEdgeStyle;rounded=0;orthogonalLoop=1;jettySize=auto;html=1;" edge="1" parent="1" source="MH2EAUF2dAE87gaKwB2e-11" target="MH2EAUF2dAE87gaKwB2e-20">
          <mxGeometry relative="1" as="geometry" />
        </mxCell>
        <mxCell id="MH2EAUF2dAE87gaKwB2e-11" value="스토리 업로드 페이" style="rounded=0;whiteSpace=wrap;html=1;" vertex="1" parent="1">
          <mxGeometry x="990" y="150" width="120" height="60" as="geometry" />
        </mxCell>
        <mxCell id="MH2EAUF2dAE87gaKwB2e-19" value="" style="edgeStyle=orthogonalEdgeStyle;rounded=0;orthogonalLoop=1;jettySize=auto;html=1;" edge="1" parent="1" source="MH2EAUF2dAE87gaKwB2e-13" target="MH2EAUF2dAE87gaKwB2e-17">
          <mxGeometry relative="1" as="geometry" />
        </mxCell>
        <mxCell id="MH2EAUF2dAE87gaKwB2e-13" value="미디어 선택&lt;div&gt;(사진이나 동영상)&lt;/div&gt;" style="shape=parallelogram;perimeter=parallelogramPerimeter;whiteSpace=wrap;html=1;fixedSize=1;rounded=0;" vertex="1" parent="1">
          <mxGeometry x="354" y="290" width="120" height="60" as="geometry" />
        </mxCell>
        <mxCell id="MH2EAUF2dAE87gaKwB2e-15" value="Message" style="swimlane;whiteSpace=wrap;html=1;" vertex="1" parent="1">
          <mxGeometry x="520" y="270" width="430" height="80" as="geometry" />
        </mxCell>
        <mxCell id="MH2EAUF2dAE87gaKwB2e-16" value="사진이나 동영상을 선택해주세요" style="text;html=1;align=center;verticalAlign=middle;whiteSpace=wrap;rounded=0;" vertex="1" parent="MH2EAUF2dAE87gaKwB2e-15">
          <mxGeometry x="130" y="35" width="170" height="30" as="geometry" />
        </mxCell>
        <mxCell id="MH2EAUF2dAE87gaKwB2e-25" value="" style="edgeStyle=orthogonalEdgeStyle;rounded=0;orthogonalLoop=1;jettySize=auto;html=1;" edge="1" parent="1" source="MH2EAUF2dAE87gaKwB2e-17" target="MH2EAUF2dAE87gaKwB2e-24">
          <mxGeometry relative="1" as="geometry" />
        </mxCell>
        <mxCell id="MH2EAUF2dAE87gaKwB2e-17" value="회원의&lt;div&gt;저장소&lt;/div&gt;" style="shape=cylinder3;whiteSpace=wrap;html=1;boundedLbl=1;backgroundOutline=1;size=15;" vertex="1" parent="1">
          <mxGeometry x="384" y="390" width="60" height="80" as="geometry" />
        </mxCell>
        <mxCell id="MH2EAUF2dAE87gaKwB2e-23" value="" style="edgeStyle=orthogonalEdgeStyle;rounded=0;orthogonalLoop=1;jettySize=auto;html=1;" edge="1" parent="1" source="MH2EAUF2dAE87gaKwB2e-20" target="MH2EAUF2dAE87gaKwB2e-22">
          <mxGeometry relative="1" as="geometry" />
        </mxCell>
        <mxCell id="MH2EAUF2dAE87gaKwB2e-20" value="미디어 선택&lt;div&gt;(사진이나 동영상)&lt;/div&gt;" style="shape=parallelogram;perimeter=parallelogramPerimeter;whiteSpace=wrap;html=1;fixedSize=1;rounded=0;" vertex="1" parent="1">
          <mxGeometry x="990" y="280" width="120" height="60" as="geometry" />
        </mxCell>
        <mxCell id="MH2EAUF2dAE87gaKwB2e-27" value="" style="edgeStyle=orthogonalEdgeStyle;rounded=0;orthogonalLoop=1;jettySize=auto;html=1;" edge="1" parent="1" source="MH2EAUF2dAE87gaKwB2e-22" target="MH2EAUF2dAE87gaKwB2e-26">
          <mxGeometry relative="1" as="geometry" />
        </mxCell>
        <mxCell id="MH2EAUF2dAE87gaKwB2e-22" value="회원의&lt;div&gt;저장소&lt;/div&gt;" style="shape=cylinder3;whiteSpace=wrap;html=1;boundedLbl=1;backgroundOutline=1;size=15;" vertex="1" parent="1">
          <mxGeometry x="1020" y="380" width="60" height="80" as="geometry" />
        </mxCell>
        <mxCell id="MH2EAUF2dAE87gaKwB2e-29" value="" style="edgeStyle=orthogonalEdgeStyle;rounded=0;orthogonalLoop=1;jettySize=auto;html=1;" edge="1" parent="1" source="MH2EAUF2dAE87gaKwB2e-24" target="MH2EAUF2dAE87gaKwB2e-28">
          <mxGeometry relative="1" as="geometry" />
        </mxCell>
        <mxCell id="MH2EAUF2dAE87gaKwB2e-39" value="" style="edgeStyle=orthogonalEdgeStyle;rounded=0;orthogonalLoop=1;jettySize=auto;html=1;" edge="1" parent="1" source="MH2EAUF2dAE87gaKwB2e-24" target="MH2EAUF2dAE87gaKwB2e-38">
          <mxGeometry relative="1" as="geometry" />
        </mxCell>
        <mxCell id="MH2EAUF2dAE87gaKwB2e-61" value="&lt;font style=&quot;font-size: 12px; color: rgb(255, 51, 51);&quot;&gt;&lt;b&gt;Yes&lt;/b&gt;&lt;/font&gt;" style="edgeLabel;html=1;align=center;verticalAlign=middle;resizable=0;points=[];" vertex="1" connectable="0" parent="MH2EAUF2dAE87gaKwB2e-39">
          <mxGeometry x="-0.3167" y="8" relative="1" as="geometry">
            <mxPoint as="offset" />
          </mxGeometry>
        </mxCell>
        <mxCell id="MH2EAUF2dAE87gaKwB2e-24" value="선택한&lt;div&gt;미디어가&lt;/div&gt;&lt;div&gt;맞는가?&lt;/div&gt;" style="rhombus;whiteSpace=wrap;html=1;" vertex="1" parent="1">
          <mxGeometry x="374" y="520" width="80" height="80" as="geometry" />
        </mxCell>
        <mxCell id="MH2EAUF2dAE87gaKwB2e-32" value="" style="edgeStyle=orthogonalEdgeStyle;rounded=0;orthogonalLoop=1;jettySize=auto;html=1;" edge="1" parent="1" source="MH2EAUF2dAE87gaKwB2e-26" target="MH2EAUF2dAE87gaKwB2e-31">
          <mxGeometry relative="1" as="geometry" />
        </mxCell>
        <mxCell id="MH2EAUF2dAE87gaKwB2e-34" value="&lt;font style=&quot;font-size: 12px; color: rgb(255, 51, 51);&quot;&gt;&lt;b&gt;No&lt;/b&gt;&lt;/font&gt;" style="edgeLabel;html=1;align=center;verticalAlign=middle;resizable=0;points=[];" vertex="1" connectable="0" parent="MH2EAUF2dAE87gaKwB2e-32">
          <mxGeometry x="-0.2" y="3" relative="1" as="geometry">
            <mxPoint x="6" y="-12" as="offset" />
          </mxGeometry>
        </mxCell>
        <mxCell id="MH2EAUF2dAE87gaKwB2e-41" value="" style="edgeStyle=orthogonalEdgeStyle;rounded=0;orthogonalLoop=1;jettySize=auto;html=1;" edge="1" parent="1" source="MH2EAUF2dAE87gaKwB2e-26" target="MH2EAUF2dAE87gaKwB2e-40">
          <mxGeometry relative="1" as="geometry" />
        </mxCell>
        <mxCell id="MH2EAUF2dAE87gaKwB2e-62" value="&lt;font style=&quot;font-size: 12px; color: rgb(255, 51, 51);&quot;&gt;&lt;b&gt;Yes&lt;/b&gt;&lt;/font&gt;" style="edgeLabel;html=1;align=center;verticalAlign=middle;resizable=0;points=[];" vertex="1" connectable="0" parent="MH2EAUF2dAE87gaKwB2e-41">
          <mxGeometry x="-0.2677" y="4" relative="1" as="geometry">
            <mxPoint x="6" y="-1" as="offset" />
          </mxGeometry>
        </mxCell>
        <mxCell id="MH2EAUF2dAE87gaKwB2e-26" value="선택한&lt;div&gt;미디어가&lt;/div&gt;&lt;div&gt;맞는가?&lt;/div&gt;" style="rhombus;whiteSpace=wrap;html=1;" vertex="1" parent="1">
          <mxGeometry x="1010" y="505" width="80" height="80" as="geometry" />
        </mxCell>
        <mxCell id="MH2EAUF2dAE87gaKwB2e-30" style="rounded=0;orthogonalLoop=1;jettySize=auto;html=1;entryX=0;entryY=0.5;entryDx=0;entryDy=0;" edge="1" parent="1" source="MH2EAUF2dAE87gaKwB2e-28" target="MH2EAUF2dAE87gaKwB2e-13">
          <mxGeometry relative="1" as="geometry">
            <Array as="points">
              <mxPoint x="180" y="320" />
            </Array>
          </mxGeometry>
        </mxCell>
        <mxCell id="MH2EAUF2dAE87gaKwB2e-28" value="미디어 재선택" style="rounded=0;whiteSpace=wrap;html=1;" vertex="1" parent="1">
          <mxGeometry x="120" y="530" width="120" height="60" as="geometry" />
        </mxCell>
        <mxCell id="MH2EAUF2dAE87gaKwB2e-33" style="rounded=0;orthogonalLoop=1;jettySize=auto;html=1;" edge="1" parent="1" source="MH2EAUF2dAE87gaKwB2e-31" target="MH2EAUF2dAE87gaKwB2e-20">
          <mxGeometry relative="1" as="geometry">
            <Array as="points">
              <mxPoint x="1290" y="310" />
            </Array>
          </mxGeometry>
        </mxCell>
        <mxCell id="MH2EAUF2dAE87gaKwB2e-31" value="미디어 재선택" style="rounded=0;whiteSpace=wrap;html=1;" vertex="1" parent="1">
          <mxGeometry x="1230" y="515" width="120" height="60" as="geometry" />
        </mxCell>
        <mxCell id="MH2EAUF2dAE87gaKwB2e-35" value="&lt;font style=&quot;font-size: 12px;&quot;&gt;No&lt;/font&gt;" style="edgeLabel;html=1;align=center;verticalAlign=middle;resizable=0;points=[];" vertex="1" connectable="0" parent="1">
          <mxGeometry x="420" y="520" as="geometry">
            <mxPoint x="-112" y="25" as="offset" />
          </mxGeometry>
        </mxCell>
        <mxCell id="MH2EAUF2dAE87gaKwB2e-43" value="" style="edgeStyle=orthogonalEdgeStyle;rounded=0;orthogonalLoop=1;jettySize=auto;html=1;" edge="1" parent="1" source="MH2EAUF2dAE87gaKwB2e-38" target="MH2EAUF2dAE87gaKwB2e-42">
          <mxGeometry relative="1" as="geometry" />
        </mxCell>
        <mxCell id="MH2EAUF2dAE87gaKwB2e-38" value="미디어 편집&lt;div&gt;(필터나 효과)&lt;/div&gt;" style="shape=parallelogram;perimeter=parallelogramPerimeter;whiteSpace=wrap;html=1;fixedSize=1;" vertex="1" parent="1">
          <mxGeometry x="354" y="660" width="120" height="60" as="geometry" />
        </mxCell>
        <mxCell id="MH2EAUF2dAE87gaKwB2e-48" value="" style="edgeStyle=orthogonalEdgeStyle;rounded=0;orthogonalLoop=1;jettySize=auto;html=1;" edge="1" parent="1" source="MH2EAUF2dAE87gaKwB2e-40" target="MH2EAUF2dAE87gaKwB2e-47">
          <mxGeometry relative="1" as="geometry" />
        </mxCell>
        <mxCell id="MH2EAUF2dAE87gaKwB2e-40" value="미디어 편집(필터나 효과),&amp;nbsp;&lt;div&gt;코멘트와 설정 추가&lt;/div&gt;" style="shape=parallelogram;perimeter=parallelogramPerimeter;whiteSpace=wrap;html=1;fixedSize=1;" vertex="1" parent="1">
          <mxGeometry x="950" y="740" width="200" height="120" as="geometry" />
        </mxCell>
        <mxCell id="MH2EAUF2dAE87gaKwB2e-46" value="" style="edgeStyle=orthogonalEdgeStyle;rounded=0;orthogonalLoop=1;jettySize=auto;html=1;" edge="1" parent="1" source="MH2EAUF2dAE87gaKwB2e-42" target="MH2EAUF2dAE87gaKwB2e-45">
          <mxGeometry relative="1" as="geometry" />
        </mxCell>
        <mxCell id="MH2EAUF2dAE87gaKwB2e-42" value="코멘트와&amp;nbsp;&lt;div&gt;설정 추가&lt;/div&gt;" style="shape=parallelogram;perimeter=parallelogramPerimeter;whiteSpace=wrap;html=1;fixedSize=1;" vertex="1" parent="1">
          <mxGeometry x="354" y="800" width="120" height="60" as="geometry" />
        </mxCell>
        <mxCell id="MH2EAUF2dAE87gaKwB2e-52" value="" style="edgeStyle=orthogonalEdgeStyle;rounded=0;orthogonalLoop=1;jettySize=auto;html=1;" edge="1" parent="1" source="MH2EAUF2dAE87gaKwB2e-45" target="MH2EAUF2dAE87gaKwB2e-51">
          <mxGeometry relative="1" as="geometry" />
        </mxCell>
        <mxCell id="MH2EAUF2dAE87gaKwB2e-45" value="공유 버튼 클릭" style="whiteSpace=wrap;html=1;" vertex="1" parent="1">
          <mxGeometry x="354" y="960" width="120" height="60" as="geometry" />
        </mxCell>
        <mxCell id="MH2EAUF2dAE87gaKwB2e-54" value="" style="edgeStyle=orthogonalEdgeStyle;rounded=0;orthogonalLoop=1;jettySize=auto;html=1;" edge="1" parent="1" source="MH2EAUF2dAE87gaKwB2e-47" target="MH2EAUF2dAE87gaKwB2e-53">
          <mxGeometry relative="1" as="geometry" />
        </mxCell>
        <mxCell id="MH2EAUF2dAE87gaKwB2e-47" value="공유 버튼 클릭" style="whiteSpace=wrap;html=1;" vertex="1" parent="1">
          <mxGeometry x="990" y="950" width="120" height="60" as="geometry" />
        </mxCell>
        <mxCell id="MH2EAUF2dAE87gaKwB2e-49" value="Message" style="swimlane;whiteSpace=wrap;html=1;" vertex="1" parent="1">
          <mxGeometry x="515" y="1020" width="430" height="80" as="geometry" />
        </mxCell>
        <mxCell id="MH2EAUF2dAE87gaKwB2e-50" value="업로드 중입니다" style="text;html=1;align=center;verticalAlign=middle;whiteSpace=wrap;rounded=0;" vertex="1" parent="MH2EAUF2dAE87gaKwB2e-49">
          <mxGeometry x="130" y="35" width="170" height="30" as="geometry" />
        </mxCell>
        <mxCell id="MH2EAUF2dAE87gaKwB2e-60" value="" style="edgeStyle=orthogonalEdgeStyle;rounded=0;orthogonalLoop=1;jettySize=auto;html=1;" edge="1" parent="1" source="MH2EAUF2dAE87gaKwB2e-51" target="MH2EAUF2dAE87gaKwB2e-57">
          <mxGeometry relative="1" as="geometry" />
        </mxCell>
        <mxCell id="MH2EAUF2dAE87gaKwB2e-51" value="업로드 후 자신의&lt;div&gt;프로필 페이지로&amp;nbsp;&lt;/div&gt;&lt;div&gt;이동&lt;/div&gt;" style="whiteSpace=wrap;html=1;" vertex="1" parent="1">
          <mxGeometry x="354" y="1100" width="120" height="60" as="geometry" />
        </mxCell>
        <mxCell id="MH2EAUF2dAE87gaKwB2e-59" value="" style="edgeStyle=orthogonalEdgeStyle;rounded=0;orthogonalLoop=1;jettySize=auto;html=1;" edge="1" parent="1" source="MH2EAUF2dAE87gaKwB2e-53" target="MH2EAUF2dAE87gaKwB2e-58">
          <mxGeometry relative="1" as="geometry" />
        </mxCell>
        <mxCell id="MH2EAUF2dAE87gaKwB2e-53" value="업로드 후&amp;nbsp;&lt;div&gt;메인 페이지로&lt;div&gt;이동&lt;/div&gt;&lt;/div&gt;" style="whiteSpace=wrap;html=1;" vertex="1" parent="1">
          <mxGeometry x="990" y="1090" width="120" height="60" as="geometry" />
        </mxCell>
        <mxCell id="MH2EAUF2dAE87gaKwB2e-57" value="&lt;span style=&quot;font-size: 18px;&quot;&gt;끝&lt;/span&gt;" style="ellipse;whiteSpace=wrap;html=1;" vertex="1" parent="1">
          <mxGeometry x="354" y="1220" width="120" height="80" as="geometry" />
        </mxCell>
        <mxCell id="MH2EAUF2dAE87gaKwB2e-58" value="&lt;span style=&quot;font-size: 18px;&quot;&gt;끝&lt;/span&gt;" style="ellipse;whiteSpace=wrap;html=1;" vertex="1" parent="1">
          <mxGeometry x="990" y="1220" width="120" height="80" as="geometry" />
        </mxCell>
      </root>
    </mxGraphModel>
  </diagram>
</mxfile>
